<svg width="126" height="36" viewBox="0 0 126 36" fill="none" xmlns="http://www.w3.org/2000/svg">
<path fill-rule="evenodd" clip-rule="evenodd" d="M86.9968 9.80394C87.5835 10.306 88.0027 10.9301 88.2293 11.6877C88.5184 12.6531 88.5641 13.6865 88.4625 14.6876C88.3052 16.261 87.4944 17.4225 86.0718 18.1896C84.8487 18.8496 83.5065 19.0874 82.1329 19.1885C81.2788 19.2512 80.3154 19.2512 79.4607 19.1885C78.0871 19.0874 76.7449 18.8496 75.5216 18.1896C74.0991 17.4225 73.289 16.261 73.1308 14.6876C73.0864 14.2484 73.0872 13.9044 73.0881 13.4787L73.0884 13.2829H77.7315C77.7315 13.3477 77.7313 13.3912 77.7312 13.429C77.7309 13.4914 77.7307 13.5382 77.7315 13.6393C77.7461 14.62 78.1294 15.14 79.1119 15.3707C80.1848 15.6248 81.4106 15.6224 82.4817 15.3707C83.4944 15.1315 83.8702 14.5414 83.8879 13.6372C83.8846 13.4903 83.8654 13.3395 83.8297 13.1851C83.7352 12.7829 83.4273 12.5265 83.0586 12.3394C82.6067 12.1076 81.8965 11.9811 81.3087 11.8764L81.3087 11.8764C81.1538 11.8489 81.0073 11.8228 80.8764 11.7967C80.5211 11.7258 80.1654 11.6569 79.8097 11.588L79.8096 11.588C78.9624 11.424 78.1153 11.26 77.2741 11.0684C76.4167 10.8747 75.6097 10.5379 74.8929 10.0308C74.7901 9.95775 74.6925 9.88233 74.5989 9.80394H74.5967C74.0101 9.30126 73.5908 8.67781 73.3647 7.91984C73.1686 7.26488 73.0764 6.61752 73.0921 5.94193C73.0908 5.65946 73.099 5.38876 73.1308 5.07235C73.289 3.49806 74.0991 2.33761 75.5216 1.57093C76.7449 0.910519 78.0871 0.672874 79.4607 0.571664C80.3165 0.50899 81.2764 0.50899 82.1329 0.571664C83.5065 0.672874 84.8487 0.910519 86.0718 1.57093C87.4944 2.33761 88.3052 3.49806 88.4625 5.07235C88.5072 5.51232 88.5064 5.85659 88.5055 6.28232V6.28235V6.28238V6.28242L88.5052 6.47608H83.862C83.862 6.41198 83.8622 6.36864 83.8624 6.33092C83.8626 6.26848 83.8628 6.22146 83.862 6.12123C83.8477 5.14076 83.4639 4.62082 82.4817 4.3898C81.4066 4.13508 80.1864 4.13663 79.1119 4.3898C78.3844 4.56085 77.9861 4.89122 77.8227 5.44903C77.7398 5.73964 77.7461 6.08999 77.8239 6.42192C77.9191 6.8243 78.2258 7.08081 78.5944 7.2691C79.0583 7.50588 79.7532 7.6327 80.3342 7.73873C80.4697 7.76345 80.5989 7.78703 80.7175 7.81061C81.0736 7.88168 81.4301 7.95067 81.7866 8.01967L81.7868 8.0197L81.7869 8.01973L81.7871 8.01976C82.6331 8.18351 83.4791 8.34725 84.3191 8.53849C85.1768 8.73415 85.9839 9.06936 86.7008 9.57768C86.8036 9.64948 86.9011 9.72612 86.9947 9.80394H86.9968ZM103.424 19.0256H108.446L100.909 0.736127H95.8685L88.3311 19.0256H93.3533L94.3805 16.5335H102.397L103.424 19.0256ZM120.978 11.0515V0.737065H126V8.70627V19.0265H120.978V19.0253C120.772 18.6619 115.181 8.8138 115.118 8.71117V19.0265H110.095V0.737065H115.118C115.118 0.737065 120.758 10.6718 120.978 11.0515ZM71.186 0.747041V3.30476V9.23981V11.7531C71.186 12.7638 71.0427 13.7688 70.7336 14.7312C70.4402 15.6454 69.975 16.4657 69.3282 17.1716C68.7644 17.7866 68.0982 18.327 67.3219 18.6405C66.2056 19.0913 64.9659 19.2357 63.7703 19.2357C62.89 19.2357 62.0104 19.1625 61.1375 19.0508C60.3282 18.9469 59.4977 18.74 58.7829 18.3312C58.1109 17.947 57.5413 17.4123 57.0623 16.8042C56.5851 16.1985 56.2021 15.5206 55.996 14.7721C55.7287 13.7988 55.5268 12.7666 55.5268 11.7531V0.747041H60.385V12.3214C60.385 13.199 60.5782 13.9203 61.1783 14.5843C61.7552 15.2236 62.526 15.4652 63.3639 15.4652C64.1939 15.4652 64.9583 15.2263 65.5333 14.5983C66.1407 13.9358 66.3276 13.1993 66.3276 12.3214V9.23981V5.76026V0.747041H71.186ZM49.8143 2.55139C48.9637 2.97351 48.4264 3.83746 48.4264 4.78247V7.3979L48.4239 12.0447C48.4239 12.366 48.4078 12.6888 48.3708 13.0073C48.2435 14.0896 47.6217 14.7978 46.5329 14.8693H41.7296V18.9711C41.7833 18.9747 44.7772 18.978 44.8144 18.978C45.1071 18.9777 45.4 18.9784 45.6929 18.9792H45.6931H45.6933H45.6936H45.6937C46.4108 18.981 47.1284 18.9827 47.8461 18.9689C48.5316 18.9566 49.2103 18.8563 49.8729 18.6677C51.2821 18.2664 52.3645 17.4749 52.9585 16.1063C53.3406 15.2278 53.4461 14.2979 53.447 13.3522V12.9786C53.447 12.9695 53.4476 12.9604 53.4482 12.9511L53.4482 12.9511C53.4488 12.9416 53.4494 12.932 53.4494 12.9222V10.9143V10.1691V0.747041L49.8143 2.55139ZM95.7499 13.2086L98.3889 6.80764L101.027 13.2086H95.7499Z" fill="white"/>
<path fill-rule="evenodd" clip-rule="evenodd" d="M30.4248 0H4.80385C2.15579 0 0 2.14118 0 4.77067V30.2152C0 32.845 2.15579 34.9856 4.80385 34.9856H30.4248C33.0745 34.9856 35.2284 32.845 35.2284 30.2152V4.77067C35.2284 2.14118 33.0745 0 30.4248 0ZM23.2976 22.6892C24.295 22.192 24.9258 21.1798 24.9258 20.072V5.79387L20.6626 7.90925C19.6649 8.40584 19.0353 9.41839 19.0353 10.5255V24.8046L23.2976 22.6892ZM14.4613 27.0753C15.4598 26.58 16.0898 25.5674 16.0898 24.46V18.2249L11.8281 20.3403C10.8289 20.8355 10.1993 21.8493 10.1993 22.9567V29.192L14.4613 27.0753Z" fill="white"/>
<path d="M41.6853 25.8413H42.7555V32.369L47.2305 25.8413H48.2249V34.3031H47.1656V27.7875L42.6798 34.3031H41.6853V25.8413Z" fill="white"/>
<path d="M50.1948 27.8963H51.2325V30.6162H54.4969V27.8963H55.5346V34.3031H54.4969V31.6195H51.2325V34.3031H50.1948V27.8963Z" fill="white"/>
<path d="M61.2383 30.9788C61.9805 31.1884 62.3516 31.7082 62.3516 32.5382C62.3516 33.1024 62.1606 33.5375 61.7787 33.8438C61.404 34.15 60.8419 34.3031 60.0925 34.3031H57.3361V27.8963H59.9952C60.6726 27.8963 61.2022 28.0414 61.5842 28.3315C61.9661 28.6136 62.157 29.0165 62.157 29.5403C62.157 29.8788 62.0742 30.173 61.9084 30.4228C61.7499 30.6645 61.5265 30.8499 61.2383 30.9788ZM58.3522 30.6525H59.9087C60.3051 30.6525 60.6041 30.5719 60.8059 30.4107C61.0149 30.2495 61.1194 30.0158 61.1194 29.7096C61.1194 29.0971 60.7158 28.7909 59.9087 28.7909H58.3522V30.6525ZM60.0168 33.4086C60.4492 33.4086 60.7735 33.332 60.9896 33.1789C61.2058 33.0258 61.3139 32.7881 61.3139 32.4657C61.3139 32.1353 61.213 31.8895 61.0113 31.7283C60.8167 31.5671 60.5068 31.4865 60.0817 31.4865H58.3522V33.4086H60.0168Z" fill="white"/>
<path d="M68.9372 31.136C68.9372 31.2246 68.93 31.3415 68.9156 31.4865H64.2676C64.3325 32.0507 64.5523 32.506 64.927 32.8525C65.3089 33.191 65.7809 33.3602 66.343 33.3602C67.0276 33.3602 67.5789 33.1024 67.9968 32.5866L68.5697 33.3361C68.3103 33.6745 67.986 33.9324 67.5969 34.1097C67.215 34.287 66.7862 34.3757 66.3106 34.3757C65.7053 34.3757 65.1684 34.2387 64.7 33.9647C64.2316 33.6826 63.8677 33.2917 63.6083 32.7921C63.3561 32.2924 63.2299 31.7283 63.2299 31.0997C63.2299 30.4792 63.3525 29.9191 63.5975 29.4194C63.8497 28.9198 64.192 28.533 64.6243 28.259C65.0639 27.9769 65.5575 27.8359 66.1052 27.8359C66.6529 27.8359 67.1393 27.9769 67.5645 28.259C67.9968 28.533 68.3319 28.9198 68.5697 29.4194C68.8147 29.9191 68.9372 30.4913 68.9372 31.136ZM66.1052 28.815C65.608 28.815 65.19 28.9843 64.8513 29.3227C64.5198 29.6612 64.3253 30.1045 64.2676 30.6525H67.9428C67.8851 30.1125 67.687 29.6733 67.3483 29.3348C67.0168 28.9883 66.6024 28.815 66.1052 28.815Z" fill="white"/>
<path d="M72.8278 34.3757C72.2441 34.3757 71.7216 34.2346 71.2605 33.9526C70.8065 33.6705 70.4498 33.2837 70.1903 32.7921C69.9309 32.2924 69.8012 31.7283 69.8012 31.0997C69.8012 30.4711 69.9309 29.911 70.1903 29.4194C70.4498 28.9198 70.8065 28.533 71.2605 28.259C71.7216 27.9769 72.2441 27.8359 72.8278 27.8359C73.3466 27.8359 73.8078 27.9527 74.2114 28.1864C74.6221 28.4201 74.9392 28.7586 75.1626 29.2019L74.3735 29.77C74.1934 29.4638 73.97 29.2341 73.7033 29.081C73.4367 28.9279 73.1413 28.8513 72.817 28.8513C72.4423 28.8513 72.1036 28.944 71.8009 29.1293C71.5055 29.3147 71.2713 29.5806 71.0983 29.9272C70.9326 30.2656 70.8497 30.6565 70.8497 31.0997C70.8497 31.551 70.9326 31.9499 71.0983 32.2965C71.2713 32.6349 71.5055 32.8969 71.8009 33.0822C72.1036 33.2676 72.4423 33.3602 72.817 33.3602C73.1413 33.3602 73.4367 33.2837 73.7033 33.1306C73.97 32.9774 74.1934 32.7478 74.3735 32.4415L75.1626 32.9976C74.9392 33.4408 74.6221 33.7833 74.2114 34.0251C73.8078 34.2588 73.3466 34.3757 72.8278 34.3757Z" fill="white"/>
<path d="M80.4856 28.9117H78.3886V34.3031H77.351V28.9117H75.254V27.8963H80.4856V28.9117Z" fill="white"/>
<path d="M81.3305 27.8963H82.3682V32.5624L85.8812 27.8963H86.8216V34.3031H85.7839V29.637L82.2817 34.3031H81.3305V27.8963Z" fill="white"/>
<path d="M94.7376 33.2877V35.8383H93.754V34.3031H88.6196V27.8963H89.6573V33.2877H92.792V27.8963H93.8297V33.2877H94.7376Z" fill="white"/>
<path d="M95.8664 27.8963H96.9041V32.5624L100.417 27.8963H101.358V34.3031H100.32V29.637L96.8176 34.3031H95.8664V27.8963Z" fill="white"/>
<path d="M103.155 27.8963H104.193V32.5624L107.706 27.8963H108.647V34.3031H107.609V29.637L104.107 34.3031H103.155V27.8963Z" fill="white"/>
</svg>
